# xmcd
#
# Track frame offsets:
#	150
#	14810
#	28350
#	42165
#	54167
#	65607
#	76097
#	90002
#	101157
#	114712
#	126285
#	136912
#	149270
#	162480
#	174460
#	187740
#	200887
#	213155
#
# Disc length: 3044 seconds
#
# Revision: 8
# Processed by: cddbd v1.5.2PL0 Copyright (c) Steve Scherf et al.
# Submitted via: audiograbber 1.83.01
#
DISCID=fc0be212
DTITLE=Various Artist - Ultimate Country Party 2
DYEAR=2000
DGENRE=Country
TTITLE0=Brooks and Dunn - My Maria
TTITLE1=Mindy McCready - Guys Do It All The Time
TTITLE2=Blackhawk - There You Have It
TTITLE3=Neal McCoy - Wink
TTITLE4=Alan Jackson - Little Bitty
TTITLE5=Diamond Rio - Unbelievable
TTITLE6=Terri Clark - Better Things To Do
TTITLE7=BR5-49 - Honky Tonk Song
TTITLE8=Travis Tritt - Country Club
TTITLE9=Joe Diffie - Texas Size Heartache
TTITLE10=Toby Keith - You Ain't Much Fun
TTITLE11=Pam Tillis - Mi Vida Loca (My Crazy Life)
TTITLE12=David Ball - Thinkin' Problem
TTITLE13=Daryle Singletary - Too Much Fun
TTITLE14=Trace Adkins - I Left Something Turned On At Home
TTITLE15=Mark Chesnutt - Bubba Shot The Jukebox
TTITLE16=Aaron Tippin - There Ain't Nothin' Wrong With The Radio
TTITLE17=Collin Raye - Little Red Rodeo
EXTD=
EXTT0=
EXTT1=
EXTT2=
EXTT3=
EXTT4=
EXTT5=
EXTT6=
EXTT7=
EXTT8=
EXTT9=
EXTT10=
EXTT11=
EXTT12=
EXTT13=
EXTT14=
EXTT15=
EXTT16=
EXTT17=
PLAYORDER=
